<?xml version="1.0" standalone="no"?>
<!DOCTYPE svg PUBLIC "-//W3C//DTD SVG 20010904//EN"
 "http://www.w3.org/TR/2001/REC-SVG-20010904/DTD/svg10.dtd">
<svg version="1.0" xmlns="http://www.w3.org/2000/svg"
 width="2500.000000pt" height="979.000000pt" viewBox="0 0 2500.000000 979.000000"
 preserveAspectRatio="xMidYMid meet">

<g transform="translate(0.000000,979.000000) scale(0.100000,-0.100000)"
fill="#000000" stroke="none">
<path d="M4564 7150 c-21 -10 -462 -263 -979 -562 -674 -390 -943 -550 -952
-568 -18 -36 -19 -2224 0 -2259 7 -16 69 -58 165 -114 85 -49 155 -87 156 -85
1 2 211 576 466 1276 374 1026 468 1277 488 1293 24 18 40 19 295 17 238 -3
271 -5 280 -20 8 -12 -47 -175 -248 -725 -740 -2028 -885 -2428 -885 -2438 0
-10 167 -110 183 -110 5 0 30 59 57 130 26 72 293 805 594 1630 372 1019 554
1506 568 1518 18 15 47 17 287 17 146 0 272 -4 280 -9 7 -5 13 -19 13 -32 0
-13 -264 -746 -586 -1629 -323 -883 -584 -1609 -582 -1615 7 -17 416 -248 440
-248 20 0 441 235 450 251 2 4 -67 201 -154 437 -86 237 -159 442 -163 455 -8
33 250 738 276 754 12 8 22 8 35 0 11 -7 105 -252 261 -680 134 -368 246 -671
247 -673 2 -2 48 22 103 53 l100 57 -34 92 c-18 50 -153 420 -299 821 -146
401 -266 739 -266 753 0 25 246 709 263 731 6 7 22 12 36 10 25 -3 42 -48 410
-1058 211 -580 385 -1056 386 -1058 4 -6 301 170 313 186 9 12 12 257 12 1147
0 1066 -1 1133 -17 1147 -20 17 -1919 1112 -1944 1121 -9 3 -33 -3 -55 -13z"/>
<path d="M8783 5549 c-18 -5 -50 -30 -73 -57 -49 -55 -693 -1226 -688 -1251 3
-14 24 -16 138 -19 74 -1 144 0 155 2 13 4 43 49 90 136 l70 130 449 -2 448
-3 69 -124 c38 -69 75 -129 83 -133 9 -5 77 -7 153 -6 118 3 138 5 141 19 5
26 -649 1207 -695 1255 -27 28 -53 44 -85 52 -54 14 -209 14 -255 1z m159
-276 c14 -18 298 -539 298 -548 0 -3 -144 -5 -320 -5 -176 0 -320 2 -320 4 0
11 295 552 304 558 16 11 21 10 38 -9z"/>
<path d="M10136 5544 c-14 -14 -16 -87 -16 -659 0 -627 1 -645 19 -655 29 -15
233 -13 254 3 15 10 17 38 19 212 l3 200 305 0 305 0 152 -200 c84 -110 162
-206 175 -212 24 -13 262 -19 292 -7 9 3 16 14 16 23 0 9 -74 108 -164 220
l-165 204 63 21 c82 28 129 65 166 129 41 72 53 155 48 332 -3 139 -6 155 -32
213 -48 104 -127 160 -256 181 -40 7 -278 11 -617 11 -488 0 -553 -2 -567 -16z
m1134 -289 c40 -38 53 -91 48 -198 -5 -98 -20 -130 -79 -159 -31 -16 -73 -18
-431 -18 l-398 0 0 198 c0 109 3 202 7 206 4 3 190 5 414 4 l408 -3 31 -30z"/>
<path d="M12066 5545 c-14 -15 -16 -79 -16 -653 0 -384 4 -643 10 -652 8 -13
88 -15 602 -18 380 -2 618 1 663 8 90 13 151 45 192 98 48 64 58 108 58 277 0
139 -2 153 -24 195 -13 25 -39 60 -58 78 l-35 32 41 47 c59 67 74 127 69 272
-5 139 -28 202 -91 257 -81 69 -71 68 -768 72 -567 3 -628 1 -643 -13z m1171
-267 c40 -22 57 -71 51 -151 -4 -52 -9 -64 -35 -88 -43 -38 -85 -41 -533 -37
l-375 3 -3 135 c-2 120 -1 136 15 148 14 10 103 12 433 10 371 -3 418 -5 447
-20z m20 -521 c24 -24 28 -36 31 -100 5 -99 -13 -142 -65 -157 -26 -7 -172
-10 -458 -8 l-420 3 -3 148 -3 148 446 -3 445 -3 27 -28z"/>
<path d="M14052 5548 c-9 -9 -12 -169 -12 -660 0 -630 1 -648 19 -658 25 -13
227 -13 252 0 18 10 19 28 19 658 0 491 -3 651 -12 660 -8 8 -52 12 -133 12
-81 0 -125 -4 -133 -12z"/>
<path d="M14772 5552 c-9 -7 -12 -40 -10 -133 l3 -124 315 -5 315 -5 3 -519
c1 -363 6 -523 13 -533 14 -16 230 -19 260 -3 18 10 19 27 19 535 l0 525 318
2 317 3 3 119 c2 78 -1 123 -9 132 -10 12 -134 14 -773 14 -418 0 -767 -4
-774 -8z"/>
<path d="M16727 5542 c-15 -17 -17 -77 -17 -655 0 -564 2 -637 16 -651 12 -13
39 -16 132 -16 64 0 123 4 129 8 9 6 13 64 15 212 l3 205 305 3 305 2 159
-209 c92 -120 168 -212 180 -215 28 -8 260 -8 280 0 9 3 16 15 16 25 0 11 -72
109 -160 218 -88 109 -160 201 -160 204 0 4 8 7 18 7 34 0 138 58 171 95 65
75 74 110 79 312 4 206 -5 257 -61 339 -41 60 -131 109 -227 124 -38 6 -297
10 -616 10 -521 0 -552 -1 -567 -18z m1113 -270 c54 -27 70 -69 70 -187 0
-116 -15 -157 -71 -187 -31 -17 -65 -18 -431 -18 l-398 0 0 205 0 205 398 0
c358 0 400 -2 432 -18z"/>
<path d="M18632 5548 c-15 -15 -17 -880 -2 -978 15 -97 73 -205 135 -252 114
-86 235 -102 740 -95 386 5 433 10 533 61 51 26 120 94 146 144 44 86 49 136
53 623 4 335 2 473 -6 488 -11 20 -20 21 -141 21 -118 0 -130 -2 -140 -19 -6
-13 -10 -171 -10 -446 0 -275 -4 -442 -11 -469 -12 -50 -57 -98 -108 -115 -44
-14 -730 -15 -783 -1 -57 16 -96 54 -113 113 -12 42 -15 126 -15 482 0 322 -3
434 -12 443 -8 8 -52 12 -133 12 -81 0 -125 -4 -133 -12z"/>
<path d="M20774 5549 c-45 -13 -73 -48 -84 -108 -6 -32 -10 -280 -10 -622 0
-503 2 -569 16 -583 21 -21 235 -23 253 -3 7 10 12 169 13 528 l3 514 24 0
c22 0 39 -33 202 -395 241 -535 247 -547 281 -586 54 -61 78 -69 218 -69 152
0 187 14 242 97 20 29 127 257 239 506 183 407 205 452 226 452 l23 0 0 -520
c0 -503 1 -520 19 -530 25 -13 217 -13 242 0 18 10 19 27 18 613 0 439 -3 611
-12 636 -7 19 -25 44 -40 55 -27 20 -41 21 -217 21 -206 0 -215 -2 -262 -66
-11 -14 -114 -245 -231 -514 -196 -452 -215 -490 -238 -493 -14 -2 -30 3 -36
10 -5 7 -103 229 -217 493 -114 264 -220 496 -235 515 -15 19 -43 40 -62 47
-40 14 -328 16 -375 2z"/>
</g>
</svg>
