<svg width="306" height="102" viewBox="0 0 306 102" fill="none" xmlns="http://www.w3.org/2000/svg">
<path d="M305.566 59.3562V45.2962H304.137C298.921 52.1832 290.656 56.6332 281.351 56.6332L281.346 20.2302L286.018 15.5602V14.9342H252.266L252.269 3.19115C245.521 0.852158 238.175 0.00115204 233.832 0.00115204C220.977 0.00115204 214.958 7.29915 214.929 14.9342H204.618V15.5602L209.289 20.2302V46.2202C209.289 49.2442 208.258 51.5602 206.195 53.1202C204.132 54.6812 201.032 55.9982 197.528 55.9982C194.026 55.9982 191.407 54.5772 189.676 53.0952C187.943 51.6122 187.077 49.5712 187.077 47.0742V20.2302L191.749 15.5602V14.9342H173.444V15.5602L178.115 20.2302V46.5992C178.115 50.5482 179.73 53.5682 182.961 55.6582C186.192 57.7482 190.395 59.3562 195.573 59.3562C198.243 59.3652 200.623 58.8262 202.714 58.0102C200.819 61.3992 199.745 65.2552 199.745 69.3412C199.745 77.8592 203.314 85.9292 209.825 92.0392C233.116 113.888 284.735 96.9472 281.487 59.3562H305.566ZM268.428 16.2742L272.384 20.2302V40.5452C270.078 38.4212 267.412 36.5562 264.471 34.8752V20.2302L268.428 16.2742ZM233.832 2.72315C241.113 2.72315 246.55 6.95816 250.837 15.5622H250.84L255.509 20.2302V30.5582C248.258 27.5582 240.113 25.0762 231.91 22.3652C217.97 17.7572 222.184 2.72315 233.832 2.72315ZM215.089 17.1552C215.916 22.7772 219.949 28.2151 226.852 30.6871C239.891 35.3561 248.795 38.3502 255.509 41.4562V64.0452L251.821 67.7322C251.412 61.7872 248.744 56.2552 244.204 52.0112C239.283 47.4102 232.748 44.8772 225.804 44.8772C220.743 44.8772 216.015 46.2392 212.013 48.5932V20.2302L215.089 17.1552ZM211.678 90.0442C205.734 84.5342 202.469 77.1772 202.469 69.3412C202.469 57.3532 212.936 47.6002 225.804 47.6002C232.055 47.6002 237.93 49.8732 242.345 54.0002C246.736 58.1042 249.154 63.5522 249.154 69.3412C249.154 77.0842 242.457 83.3822 234.121 83.3822C230.252 83.3822 227.09 80.4452 226.882 76.7502C229.883 75.6282 232.02 72.7352 232.02 69.3412C232.02 64.9762 228.481 61.4372 224.115 61.4372C219.749 61.4372 216.21 64.9762 216.21 69.3412C216.21 78.7072 224.357 86.1052 234.037 86.1052C243.874 86.1052 251.877 78.5852 251.877 69.3412H269.142V68.7162L264.471 64.0452V46.6392C270.767 51.3422 272.386 55.9852 272.386 66.1012C272.386 92.8872 232.906 109.716 211.678 90.0442Z" fill="#205BB0"/>
<path d="M153.558 70.041H0V68.685H153.558V70.041Z" fill="#020407"/>
<path d="M13.8358 34.1152H1.12085V34.0082C2.00885 33.7662 2.59785 33.3902 2.88485 32.8802C3.18085 32.3612 3.32885 31.5252 3.32885 30.3702V18.8822C3.32885 17.7372 3.18085 16.9052 2.88485 16.3862C2.59785 15.8762 2.00885 15.5002 1.12085 15.2582V15.1512H13.0738V19.0302H12.9728C12.3128 17.7772 11.7458 16.9632 11.2729 16.5872C10.7989 16.2112 10.1009 16.0232 9.17885 16.0232H6.03185V23.9152H9.15285C9.80485 23.9152 10.3158 23.7922 10.6888 23.5462C11.0608 23.3002 11.4328 22.8642 11.8059 22.2372H11.9068V26.4782H11.8059C11.4249 25.8432 11.0548 25.4052 10.6948 25.1632C10.3358 24.9222 9.82185 24.8012 9.15285 24.8012H6.03185V33.2292H9.90185C10.7738 33.2292 11.4418 33.0372 11.9068 32.6522C12.3638 32.2682 13.1418 31.3152 14.2418 29.7932H14.3439L13.8358 34.1152Z" fill="#020407"/>
<path d="M16.5385 33.4002V28.9272H16.6395C18.0105 32.1812 19.6635 33.8032 21.6015 33.7952C22.4985 33.8122 23.2725 33.5292 23.9235 32.9462C24.5745 32.3633 24.9005 31.6153 24.9005 30.7032C24.8925 29.2562 23.9025 27.8523 21.9315 26.4932C20.9845 25.8442 20.1635 25.2782 19.4695 24.7952C18.5975 24.1992 17.8815 23.4892 17.3185 22.6642C16.7565 21.8392 16.4795 20.9543 16.4875 20.0063C16.4875 18.5943 17.0415 17.4322 18.1495 16.5203C19.2745 15.6073 20.4925 15.1512 21.8045 15.1512C23.1245 15.1512 24.6425 15.5203 26.3595 16.2563V19.9543H26.2585C24.9465 17.2433 23.4035 15.8883 21.6265 15.8883C20.8145 15.8883 20.0995 16.1512 19.4825 16.6782C18.8645 17.2043 18.5565 17.8792 18.5565 18.7043C18.5565 20.0373 19.5545 21.3533 21.5505 22.6513C22.3035 23.1423 23.1415 23.7163 24.0635 24.3743C24.9425 24.9883 25.6635 25.7323 26.2265 26.6042C26.7895 27.4773 27.0665 28.4053 27.0575 29.3872C27.0575 30.8433 26.5205 32.0622 25.4465 33.0452C24.3805 34.0182 22.9715 34.5142 21.2205 34.5312C19.4865 34.5312 17.9255 34.1542 16.5385 33.4002Z" fill="#020407"/>
<path d="M39.1762 34.5327C36.3682 34.5327 33.9992 33.6507 32.0702 31.8877C30.1412 30.1247 29.1732 27.8707 29.1642 25.1257C29.1642 23.1787 29.6762 21.4327 30.7002 19.8887C31.6892 18.4067 32.9372 17.2467 34.4432 16.4087C35.9492 15.5717 37.5602 15.1527 39.2782 15.1527C40.0392 15.1527 40.9212 15.2537 41.9242 15.4557C42.9262 15.6567 43.7612 15.9067 44.4302 16.2047V19.8497H44.3152C43.1222 17.2097 41.3502 15.8897 38.9982 15.8897C37.0952 15.8897 35.4882 16.7407 34.1772 18.4417C32.8652 20.1437 32.2102 22.2747 32.2102 24.8357C32.2102 27.3797 32.9082 29.5117 34.3042 31.2307C35.6992 32.9497 37.3742 33.8047 39.3292 33.7957C41.8412 33.7957 43.6982 32.3967 44.8992 29.5987H45.0002L44.6832 33.4017C44.1082 33.7167 43.3092 33.9847 42.2852 34.2037C41.1942 34.4317 40.1582 34.5417 39.1762 34.5327Z" fill="#020407"/>
<path d="M61.7761 28.9212V20.8682C61.7761 18.8373 61.6491 17.4683 61.3961 16.7612C61.1331 16.0552 60.5751 15.5542 59.7201 15.2582V15.1512H65.0251V15.2582C64.4161 15.4642 63.9781 15.7412 63.7111 16.0903C63.4451 16.4393 63.2561 16.9582 63.1461 17.6472C63.0451 18.3013 62.9861 19.3743 62.9691 20.8682V29.0022C62.9691 30.6842 62.3431 32.0262 61.0911 33.0282C59.8391 34.0303 58.1851 34.5312 56.1291 34.5312C54.0651 34.5312 52.3821 34.0352 51.0791 33.0422C49.7671 32.0392 49.1161 30.6932 49.1251 29.0022V18.8822C49.1251 17.7372 48.9771 16.9053 48.6811 16.3862C48.3931 15.8762 47.8051 15.5002 46.9171 15.2582V15.1512H54.0361V15.2582C53.1471 15.5002 52.5591 15.8762 52.2721 16.3862C51.9751 16.9053 51.8281 17.7372 51.8281 18.8822V29.3912C51.8281 30.5542 52.2251 31.5032 53.0211 32.2362C53.8241 32.9792 54.9921 33.3502 56.5231 33.3502C57.2081 33.3502 57.8551 33.2652 58.4641 33.0952C59.0731 32.9253 59.6291 32.6702 60.1331 32.3302C60.6361 31.9902 61.0361 31.5272 61.3321 30.9412C61.6281 30.3552 61.7761 29.6823 61.7761 28.9212Z" fill="#020407"/>
<path d="M79.5031 34.1152H66.7881V34.0082C67.6761 33.7662 68.2651 33.3902 68.5521 32.8802C68.8481 32.3612 68.9961 31.5252 68.9961 30.3702V18.8822C68.9961 17.7372 68.8481 16.9052 68.5521 16.3862C68.2651 15.8762 67.6761 15.5002 66.7881 15.2582V15.1512H78.7411V19.0302H78.6401C77.9801 17.7772 77.4131 16.9632 76.9401 16.5872C76.4661 16.2112 75.7681 16.0232 74.8461 16.0232H71.6991V23.9152H74.8201C75.4721 23.9152 75.9841 23.7922 76.3561 23.5462C76.7281 23.3002 77.1001 22.8642 77.4731 22.2372H77.5741V26.4782H77.4731C77.0921 25.8432 76.7221 25.4052 76.3621 25.1632C76.0031 24.9222 75.4891 24.8012 74.8201 24.8012H71.6991V33.2292H75.5691C76.4411 33.2292 77.1091 33.0372 77.5741 32.6522C78.0311 32.2682 78.8091 31.3152 79.9091 29.7932H80.0111L79.5031 34.1152Z" fill="#020407"/>
<path d="M94.286 34.1152H81.838V34.0082C82.726 33.7662 83.314 33.3902 83.602 32.8802C83.898 32.3612 84.046 31.5252 84.046 30.3702V18.8822C84.046 17.7372 83.898 16.9052 83.602 16.3862C83.314 15.8762 82.726 15.5002 81.838 15.2582V15.1512H88.957V15.2582C88.069 15.5002 87.48 15.8762 87.193 16.3862C86.896 16.9052 86.749 17.7372 86.749 18.8822V33.2292H90.873C91.44 33.2292 91.943 32.9972 92.383 32.5312C92.873 32.0132 93.664 30.9742 94.756 29.4182H94.857L94.286 34.1152Z" fill="#020407"/>
<path d="M100.821 26.5072H107.115L103.892 16.9642L100.821 26.5072ZM113.612 34.0092V34.1172H107.089V34.0092C107.656 33.8572 108.062 33.6522 108.308 33.3922C108.562 33.1242 108.684 32.6852 108.676 32.0772C108.676 31.4602 108.257 29.9122 107.419 27.4332H100.517C99.7382 29.9212 99.3492 31.4502 99.3492 32.0232C99.3492 32.6142 99.4742 33.0502 99.7232 33.3312C99.9732 33.6142 100.381 33.8402 100.948 34.0092V34.1172H95.4662V34.0092C95.9822 33.7322 96.4092 33.3882 96.7482 32.9762C97.3912 32.1892 98.2922 30.1042 99.4512 26.7222L103.448 15.1532H105.973L109.843 26.6952C110.715 29.3252 111.378 31.0972 111.835 32.0102C112.309 32.9582 112.901 33.6252 113.612 34.0092Z" fill="#020407"/>
<path d="M125.033 16.0252V33.2312H128.231C130.388 33.2312 132.101 32.3852 133.37 30.6942C134.639 29.0032 135.273 26.9502 135.273 24.5342C135.273 22.1182 134.613 20.1012 133.294 18.4812C131.974 16.8622 130.388 16.0432 128.535 16.0252H125.033ZM128.154 34.1172H120.122V34.0092C121.01 33.7682 121.598 33.3922 121.886 32.8822C122.182 32.3632 122.33 31.5262 122.33 30.3722V18.8842C122.33 17.7382 122.182 16.9062 121.886 16.3872C121.598 15.8772 121.01 15.5022 120.122 15.2602V15.1532H128.408C131.234 15.1532 133.589 15.9492 135.476 17.5412C137.362 19.1342 138.306 21.4292 138.306 24.4272C138.306 25.6792 138.137 26.8312 137.798 27.8832C137.46 28.9342 136.986 29.8402 136.377 30.6002C135.768 31.3612 135.041 32.0072 134.195 32.5402C133.349 33.0722 132.418 33.4682 131.403 33.7282C130.388 33.9872 129.305 34.1172 128.154 34.1172Z" fill="#020407"/>
<path d="M153.051 34.1152H140.336V34.0082C141.224 33.7662 141.813 33.3902 142.1 32.8802C142.396 32.3612 142.544 31.5252 142.544 30.3702V18.8822C142.544 17.7372 142.396 16.9052 142.1 16.3862C141.813 15.8762 141.224 15.5002 140.336 15.2582V15.1512H152.289V19.0302H152.188C151.528 17.7772 150.961 16.9632 150.488 16.5872C150.014 16.2112 149.316 16.0232 148.394 16.0232H145.247V23.9152H148.368C149.02 23.9152 149.532 23.7922 149.904 23.5462C150.276 23.3002 150.649 22.8642 151.021 22.2372H151.122V26.4782H151.021C150.64 25.8432 150.27 25.4052 149.91 25.1632C149.551 24.9222 149.037 24.8012 148.368 24.8012H145.247V33.2292H149.117C149.989 33.2292 150.657 33.0372 151.122 32.6522C151.579 32.2682 152.357 31.3152 153.457 29.7932H153.559L153.051 34.1152Z" fill="#020407"/>
<path d="M6.09337 40.9749V49.9909H8.56737C9.41837 49.9909 10.1464 49.7739 10.7524 49.3389C11.3574 48.9039 11.7994 48.3399 12.0804 47.6469C12.3614 46.9529 12.5024 46.1719 12.5024 45.3029C12.5024 44.1189 12.1994 43.1019 11.5944 42.2509C10.9804 41.4189 10.0454 40.9939 8.79037 40.9749H6.09337ZM8.76437 59.5609V59.6719H1.00037V59.5609C1.92237 59.3119 2.53137 58.9229 2.83037 58.3959C3.13637 57.8599 3.29037 56.9959 3.29037 55.8019V43.9289C3.29037 42.7459 3.13637 41.8859 2.83037 41.3489C2.53137 40.8219 1.92237 40.4339 1.00037 40.1839V40.0729H9.27837C11.2954 40.0729 12.8064 40.5009 13.8114 41.3569C14.8154 42.2119 15.3134 43.4899 15.3054 45.1919C15.3054 47.0779 14.7124 48.5019 13.5284 49.4639C12.3524 50.4159 10.8524 50.8919 9.02737 50.8919H6.09337V55.8019C6.09337 56.9769 6.27737 57.8389 6.64637 58.3889C7.01437 58.9389 7.72037 59.3299 8.76437 59.5609Z" fill="#020407"/>
<path d="M23.0409 56.1279C24.2869 57.9839 25.8569 58.9119 27.7519 58.9119C29.6379 58.9119 31.2129 57.9889 32.4759 56.1419C33.7309 54.2769 34.3579 52.1089 34.3579 49.6379C34.3579 47.1569 33.7349 45.0029 32.4899 43.1739C31.2519 41.3459 29.6779 40.4309 27.7649 40.4309C25.8529 40.4309 24.2739 41.3459 23.0279 43.1739C21.7819 45.0029 21.1589 47.1569 21.1589 49.6379C21.1589 52.0999 21.7859 54.2629 23.0409 56.1279ZM27.7519 39.6709C29.4109 39.6709 30.9699 40.1119 32.4299 40.9949C33.8909 41.8769 35.0909 43.0609 36.0299 44.5459C37.0029 46.0939 37.4989 47.8179 37.5169 49.7189C37.5169 50.8139 37.3499 51.8689 37.0169 52.8829C36.6829 53.8969 36.2109 54.8089 35.6019 55.6189C34.9919 56.4289 34.2859 57.1389 33.4829 57.7509C32.6809 58.3619 31.7879 58.8319 30.8049 59.1629C29.8219 59.4929 28.8089 59.6629 27.7649 59.6719C26.0109 59.6719 24.3839 59.2289 22.8829 58.3409C21.3829 57.4539 20.1939 56.2459 19.3169 54.7159C18.4399 53.1859 18.0009 51.5199 18.0009 49.7189C18.0009 48.4149 18.2679 47.1439 18.8039 45.9039C19.3389 44.6629 20.0489 43.5909 20.9359 42.6849C21.8219 41.7799 22.8639 41.0509 24.0609 40.4989C25.2579 39.9469 26.4889 39.6709 27.7519 39.6709Z" fill="#020407"/>
<path d="M40.7907 58.5039V53.8869H40.8957C42.3177 57.2459 44.0327 58.9209 46.0417 58.9119C46.9707 58.9299 47.7737 58.6379 48.4497 58.0359C49.1247 57.4339 49.4627 56.6619 49.4627 55.7209C49.4547 54.2269 48.4277 52.7789 46.3837 51.3759C45.4007 50.7059 44.5497 50.1219 43.8307 49.6239C42.9267 49.0079 42.1837 48.2749 41.6007 47.4239C41.0167 46.5739 40.7297 45.6589 40.7387 44.6809C40.7387 43.2239 41.3127 42.0249 42.4617 41.0829C43.6287 40.1419 44.8917 39.6709 46.2527 39.6709C47.6207 39.6709 49.1947 40.0509 50.9757 40.8119V44.6269H50.8707C49.5107 41.8299 47.9107 40.4309 46.0677 40.4309C45.2257 40.4309 44.4837 40.7029 43.8437 41.2459C43.2037 41.7889 42.8837 42.4859 42.8837 43.3369C42.8837 44.7129 43.9187 46.0709 45.9887 47.4109C46.7697 47.9179 47.6377 48.5109 48.5947 49.1889C49.5067 49.8229 50.2547 50.5899 50.8377 51.4909C51.4217 52.3919 51.7087 53.3489 51.6997 54.3629C51.6997 55.8659 51.1427 57.1239 50.0287 58.1379C48.9237 59.1419 47.4627 59.6539 45.6467 59.6719C43.8477 59.6719 42.2297 59.2819 40.7907 58.5039Z" fill="#020407"/>
<path d="M68.9772 57.9551V53.4041C68.9772 52.2491 68.8232 51.4091 68.5162 50.8851C68.2182 50.3711 67.6082 49.9911 66.6872 49.7481V49.6261H73.3722V49.7481C72.6962 50.0001 72.2322 50.3621 71.9772 50.8311C71.7322 51.2921 71.6132 52.1491 71.6222 53.4041V58.5381C68.9462 59.2591 66.7182 59.6211 64.9372 59.6211C62.1032 59.6211 59.6772 58.6821 57.6592 56.8041C55.6332 54.9261 54.6152 52.5651 54.6072 49.7211C54.6072 47.6891 55.1642 45.8921 56.2782 44.3301C57.3482 42.8321 58.6772 41.6801 60.2652 40.8771C61.8532 40.0731 63.5642 39.6711 65.3982 39.6711C66.2222 39.6711 67.2072 39.7681 68.3522 39.9631C69.4972 40.1571 70.4072 40.4031 71.0822 40.7011V44.4391H70.9772C69.5032 41.7751 67.5512 40.4481 65.1212 40.4571C63.1122 40.4571 61.3842 41.3151 59.9372 43.0301C58.4892 44.7461 57.7652 46.9401 57.7652 49.6121C57.7652 52.2851 58.4892 54.4881 59.9372 56.2211C61.3842 57.9551 63.2132 58.8171 65.4242 58.8081C66.6082 58.8081 67.7922 58.5241 68.9772 57.9551Z" fill="#020407"/>
<path d="M79.6766 40.9749V49.8939H81.9926C83.1066 49.8939 84.0666 49.4909 84.8746 48.6869C85.6816 47.8819 86.0856 46.8099 86.0856 45.4689C86.0856 44.1279 85.7336 43.0469 85.0326 42.2229C84.3396 41.4099 83.4796 40.9939 82.4526 40.9749H79.6766ZM91.8226 59.5609V59.6719H90.0196C88.5726 59.6719 87.6336 59.5479 87.2036 59.2979C86.7736 59.0479 86.1686 58.3129 85.3876 57.0919L81.3746 50.7809H79.6766V55.8019C79.6766 56.9859 79.8296 57.8509 80.1376 58.3959C80.4356 58.9329 81.0456 59.3209 81.9666 59.5609V59.6719H74.5836V59.5609C75.5056 59.3119 76.1146 58.9229 76.4136 58.3959C76.7196 57.8599 76.8736 56.9959 76.8736 55.8019V43.9289C76.8736 42.7459 76.7196 41.8859 76.4136 41.3489C76.1146 40.8219 75.5056 40.4339 74.5836 40.1839V40.0729H82.8616C84.9046 40.0729 86.4356 40.4889 87.4536 41.3219C88.4716 42.1539 88.9756 43.4019 88.9676 45.0669C88.9676 46.4079 88.4936 47.5079 87.5456 48.3679C86.5716 49.2189 85.4226 49.8239 84.0986 50.1849L88.3226 56.3709C89.1556 57.6099 89.7696 58.4009 90.1646 58.7429C90.5506 59.0849 91.1036 59.3579 91.8226 59.5609Z" fill="#020407"/>
<path d="M97.7533 51.8069H104.28L100.938 41.9449L97.7533 51.8069ZM111.017 59.5609V59.6719H104.253V59.5609C104.841 59.4029 105.262 59.1909 105.517 58.9229C105.78 58.6449 105.907 58.1919 105.898 57.5629C105.898 56.9249 105.464 55.3249 104.596 52.7639H97.4373C96.6303 55.3349 96.2263 56.9159 96.2263 57.5079C96.2263 58.1179 96.3563 58.5689 96.6153 58.8599C96.8733 59.1509 97.2973 59.3849 97.8843 59.5609V59.6719H92.2003V59.5609C92.7353 59.2739 93.1783 58.9179 93.5293 58.4929C94.1953 57.6789 95.1293 55.5239 96.3313 52.0289L100.477 40.0729H103.095L107.109 52.0009C108.013 54.7199 108.702 56.5509 109.175 57.4939C109.666 58.4739 110.281 59.1629 111.017 59.5609Z" fill="#020407"/>
<path d="M117.688 40.9749V58.7569H121.004C123.241 58.7569 125.018 57.8829 126.334 56.1349C127.65 54.3879 128.308 52.2659 128.308 49.7689C128.308 47.2719 127.623 45.1869 126.255 43.5129C124.886 41.8399 123.241 40.9939 121.32 40.9749H117.688ZM120.925 59.6719H112.595V59.5609C113.517 59.3119 114.126 58.9229 114.424 58.3959C114.731 57.8599 114.885 56.9959 114.885 55.8019V43.9289C114.885 42.7459 114.731 41.8859 114.424 41.3489C114.126 40.8219 113.517 40.4339 112.595 40.1839V40.0729H121.188C124.118 40.0729 126.562 40.8969 128.518 42.5419C130.474 44.1879 131.453 46.5599 131.453 49.6579C131.453 50.9529 131.277 52.1429 130.926 53.2299C130.576 54.3159 130.084 55.2519 129.452 56.0379C128.821 56.8239 128.066 57.4919 127.189 58.0419C126.312 58.5929 125.347 59.0019 124.294 59.2699C123.241 59.5379 122.118 59.6719 120.925 59.6719Z" fill="#020407"/>
<path d="M139.083 56.1279C140.329 57.9839 141.899 58.9119 143.794 58.9119C145.68 58.9119 147.255 57.9889 148.518 56.1419C149.773 54.2769 150.401 52.1089 150.401 49.6379C150.401 47.1569 149.777 45.0029 148.532 43.1739C147.294 41.3459 145.72 40.4309 143.807 40.4309C141.895 40.4309 140.316 41.3459 139.07 43.1739C137.824 45.0029 137.201 47.1569 137.201 49.6379C137.201 52.0999 137.828 54.2629 139.083 56.1279ZM143.794 39.6709C145.453 39.6709 147.012 40.1119 148.472 40.9949C149.933 41.8769 151.133 43.0609 152.072 44.5459C153.045 46.0939 153.541 47.8179 153.559 49.7189C153.559 50.8139 153.392 51.8689 153.059 52.8829C152.725 53.8969 152.253 54.8089 151.644 55.6189C151.034 56.4289 150.328 57.1389 149.525 57.7509C148.723 58.3619 147.83 58.8319 146.847 59.1629C145.864 59.4929 144.851 59.6629 143.807 59.6719C142.053 59.6719 140.426 59.2289 138.925 58.3409C137.425 57.4539 136.236 56.2459 135.359 54.7159C134.482 53.1859 134.043 51.5199 134.043 49.7189C134.043 48.4149 134.31 47.1439 134.846 45.9039C135.381 44.6629 136.091 43.5909 136.978 42.6849C137.864 41.7799 138.906 41.0509 140.103 40.4989C141.3 39.9469 142.531 39.6709 143.794 39.6709Z" fill="#020407"/>
</svg>
