<?xml version="1.0" encoding="utf-8"?>
<svg xmlns="http://www.w3.org/2000/svg" fill="none" overflow="visible" style="display: block;" viewBox="0 0 149 26">
<g clip-path="url(#clip0_0_987)" id="Frame 47268">
<g id="Layer 1">
<path d="M18.9789 19.8322C17.7806 20.5032 16.5823 21.1683 15.384 21.8723C15.3397 21.9115 15.2847 21.9367 15.2261 21.9447C15.1674 21.9527 15.1077 21.9431 15.0545 21.9172C14.9467 21.8543 14.9736 21.7494 14.9766 21.6506C14.9766 20.4283 14.9766 19.2091 14.9766 17.9868C14.967 17.8805 14.9907 17.7738 15.0443 17.6815C15.098 17.5892 15.179 17.5158 15.2762 17.4716C15.9629 17.1289 16.6309 16.7499 17.2773 16.3362C17.4773 16.187 17.6369 15.9902 17.7415 15.7637C17.8462 15.5371 17.8926 15.2881 17.8765 15.039C17.8765 14.1703 17.8405 13.3015 17.8465 12.4358C17.8465 11.2674 17.9124 10.1021 17.9154 8.93678C17.9154 8.28072 17.7417 7.73849 17.0646 7.37601C15.9772 6.81282 14.9197 6.1957 13.8862 5.54563C13.1343 5.06931 12.3464 4.64692 11.6034 4.1736C11.3771 4.0382 11.1183 3.96669 10.8545 3.96669C10.5908 3.96669 10.3319 4.0382 10.1056 4.1736C9.41957 4.49414 8.81743 4.97345 8.16137 5.35091C7.42742 5.7763 6.69647 6.20768 5.95053 6.6181C5.39608 6.88418 4.8641 7.19475 4.35981 7.54677C4.18519 7.67051 4.04066 7.83197 3.93694 8.01919C3.83322 8.2064 3.77297 8.41455 3.76067 8.62822C3.70075 9.65276 3.82058 10.6683 3.8056 11.6898C3.79062 12.7114 3.77864 13.697 3.76965 14.7005C3.76965 14.8983 3.76965 15.096 3.78763 15.2997C3.80904 15.5538 3.89628 15.7979 4.04073 16.008C4.18519 16.2181 4.38188 16.387 4.61145 16.498C5.52814 17.0492 6.49276 17.5105 7.41544 18.0527C7.81986 18.2924 8.2093 18.556 8.61372 18.7987C8.85038 18.9425 8.91329 18.9005 8.91329 18.6189C8.91329 17.3817 8.91329 16.1415 8.91329 14.9042C8.91764 14.7989 8.89744 14.694 8.85429 14.5978C8.81114 14.5017 8.74622 14.4168 8.66465 14.35C8.09135 13.8098 7.74446 13.0721 7.69404 12.286C7.64376 11.8042 7.70479 11.3173 7.87243 10.8628C8.04007 10.4084 8.30984 9.99846 8.66094 9.66473C9.01204 9.33099 9.43509 9.08235 9.89747 8.93796C10.3599 8.79357 10.8492 8.7573 11.3278 8.83193C11.8162 8.89326 12.2825 9.07152 12.6872 9.35159C13.0919 9.63165 13.423 10.0052 13.6525 10.4406C13.8653 10.8215 13.9957 11.2429 14.0355 11.6773C14.0752 12.1118 14.0233 12.5498 13.8832 12.963C13.6849 13.5361 13.3387 14.0466 12.8796 14.4429C12.8291 14.5009 12.7923 14.5695 12.7721 14.6437C12.7518 14.7179 12.7487 14.7957 12.7628 14.8713C12.7628 15.7041 12.7628 16.5339 12.7628 17.3667C12.7628 19.5276 12.7678 21.6875 12.7778 23.8464C12.7778 24.2898 12.7628 24.7452 12.7418 25.1735C12.7268 25.4731 12.607 25.53 12.3554 25.3862C11.5585 24.9339 10.7676 24.4875 9.97677 24.0172C9.35666 23.6577 8.72456 23.3192 8.11943 22.9387C6.92114 22.1718 5.68991 21.4649 4.4377 20.7519C3.80261 20.3894 3.14355 20.0748 2.50546 19.7064C1.98453 19.3976 1.48419 19.0554 1.00761 18.6818C0.757722 18.4849 0.549559 18.2401 0.395259 17.9619C0.240959 17.6836 0.14361 17.3774 0.108891 17.0612C0.00158519 16.2008 -0.0264927 15.3324 0.0250114 14.4669C0.0369943 13.1847 0.0669514 11.8995 0.0519729 10.6144C0.0519729 9.38614 -0.0378986 8.1549 0.150831 6.92965C0.20351 6.56827 0.330868 6.22181 0.524796 5.91235C0.718725 5.60289 0.974972 5.33721 1.27722 5.13222C2.08263 4.58211 2.92101 4.08189 3.78763 3.63437C4.91402 3.03522 6.00745 2.34921 7.10987 1.69314C7.91273 1.21982 8.71258 0.740508 9.54539 0.324104C9.91762 0.122029 10.3325 0.0112254 10.7559 0.000809223C11.1793 -0.00960694 11.5992 0.0806622 11.9809 0.264189C12.8933 0.685605 13.7751 1.17009 14.6201 1.71411C15.5049 2.27531 16.4066 2.80356 17.3253 3.29885C17.9993 3.67032 18.6763 4.03579 19.3444 4.41325C19.7906 4.67264 20.2208 4.95876 20.6325 5.27003C20.8924 5.46102 21.1098 5.70401 21.2707 5.98354C21.4316 6.26307 21.5326 6.57303 21.5672 6.8937C21.6825 8.02822 21.7126 9.1698 21.6571 10.3088C21.6391 11.4112 21.687 12.5137 21.702 13.6041C21.717 14.6945 21.8218 15.776 21.6571 16.8545C21.5956 17.4804 21.3193 18.0657 20.8752 18.5111C20.3012 19.0295 19.6641 19.4734 18.9789 19.8322Z" fill="url(#paint0_linear_0_987)" id="Vector"/>
</g>
<g id="Quantum3 Labs">
<path d="M35.2941 5.8021C37.2836 5.8021 38.7281 6.25185 39.6276 7.15134C40.5377 8.05083 40.9927 9.5006 40.9927 11.5007C40.9927 14.0298 40.2519 15.6965 38.7704 16.5008L41.2467 18.7707L39.707 20.3104L36.31 17.1675C35.8868 17.1886 35.5481 17.1992 35.2941 17.1992C33.2941 17.1992 31.8443 16.7495 30.9448 15.85C30.0453 14.9399 29.5956 13.4901 29.5956 11.5007C29.5956 9.5006 30.0453 8.05083 30.9448 7.15134C31.8443 6.25185 33.2941 5.8021 35.2941 5.8021ZM32.6433 14.2468C33.1936 14.8182 34.0772 15.1039 35.2941 15.1039C36.5111 15.1039 37.3947 14.8182 37.945 14.2468C38.4953 13.6753 38.7704 12.7599 38.7704 11.5007C38.7704 10.2414 38.4953 9.326 37.945 8.75456C37.3947 8.17253 36.5111 7.88152 35.2941 7.88152C34.0772 7.88152 33.1936 8.17253 32.6433 8.75456C32.093 9.326 31.8179 10.2414 31.8179 11.5007C31.8179 12.7599 32.093 13.6753 32.6433 14.2468Z" fill="var(--fill-0, #4D58FF)"/>
<path d="M42.1605 8.80218H44.2558V13.4531C44.2558 14.0774 44.4039 14.5325 44.7002 14.8182C44.9966 15.1039 45.4622 15.2468 46.0971 15.2468C46.8061 15.2468 47.3141 15.0669 47.621 14.7071C47.9384 14.3473 48.0972 13.7547 48.0972 12.9293V8.80218H50.1924V17.0563H48.0972V16.2309C47.5575 16.8764 46.6844 17.1992 45.478 17.1992C44.3246 17.1992 43.4833 16.9029 42.9542 16.3103C42.4251 15.7177 42.1605 14.7653 42.1605 13.4531V8.80218Z" fill="var(--fill-0, #4D58FF)"/>
<path d="M54.3679 17.1992C53.2991 17.1992 52.5107 16.9981 52.0028 16.596C51.5054 16.1833 51.2567 15.5272 51.2567 14.6277C51.2567 13.7071 51.5318 13.051 52.0821 12.6594C52.6324 12.2573 53.5213 12.0562 54.7489 12.0562H57.2251C57.1828 11.4954 57.0082 11.0932 56.7013 10.8498C56.405 10.5959 55.9394 10.4689 55.3044 10.4689C54.2779 10.4689 53.6748 10.834 53.4949 11.5641H51.4313C51.5583 10.5482 51.934 9.81278 52.5583 9.35774C53.1827 8.89212 54.1245 8.65931 55.3838 8.65931C56.7595 8.65931 57.7595 8.94504 58.3839 9.51648C59.0082 10.0773 59.3204 10.9874 59.3204 12.2467V17.0563H57.2251V16.2785C56.6219 16.8923 55.6695 17.1992 54.3679 17.1992ZM53.352 14.5325C53.352 15.1039 53.8652 15.3896 54.8917 15.3896C55.6113 15.3896 56.151 15.2626 56.5108 15.0087C56.8812 14.7441 57.1193 14.3367 57.2251 13.7864V13.5959H55.3044C54.0028 13.5959 53.352 13.9081 53.352 14.5325Z" fill="var(--fill-0, #4D58FF)"/>
<path d="M62.7576 17.0563H60.6623V8.80218H62.7576V9.62759C63.3079 8.98207 64.1968 8.65931 65.4243 8.65931C66.5884 8.65931 67.435 8.95562 67.9641 9.54823C68.5038 10.1408 68.7736 11.0932 68.7736 12.4054V17.0563H66.6783V12.4054C66.6783 11.7811 66.5249 11.326 66.218 11.0403C65.9217 10.7546 65.4508 10.6117 64.8053 10.6117C64.0751 10.6117 63.5513 10.7969 63.2338 11.1673C62.9163 11.5271 62.7576 12.1144 62.7576 12.9293V17.0563Z" fill="var(--fill-0, #4D58FF)"/>
<path d="M72.8206 8.80218H75.0746V10.7546H72.8206V13.9293C72.8206 14.342 72.9158 14.6436 73.1063 14.8341C73.2968 15.014 73.6143 15.1039 74.0587 15.1039H75.2175V17.0563H73.9952C72.8523 17.0563 72.0216 16.8288 71.5031 16.3738C70.9846 15.9187 70.7253 15.1886 70.7253 14.1833V10.7546H69.5189V8.80218H70.7253V7.00848H72.8206V8.80218Z" fill="var(--fill-0, #4D58FF)"/>
<path d="M76.1259 8.80218H78.2211V13.4531C78.2211 14.0774 78.3693 14.5325 78.6656 14.8182C78.9619 15.1039 79.4275 15.2468 80.0625 15.2468C80.7715 15.2468 81.2794 15.0669 81.5863 14.7071C81.9038 14.3473 82.0625 13.7547 82.0625 12.9293V8.80218H84.1578V17.0563H82.0625V16.2309C81.5228 16.8764 80.6498 17.1992 79.4434 17.1992C78.2899 17.1992 77.4486 16.9029 76.9195 16.3103C76.3904 15.7177 76.1259 14.7653 76.1259 13.4531V8.80218Z" fill="var(--fill-0, #4D58FF)"/>
<path d="M87.6348 17.0563H85.5395V8.80218H87.6348V9.5641C88.1639 8.96091 88.9788 8.65931 90.0793 8.65931C91.3492 8.65931 92.2222 9.07731 92.6984 9.91331C93.2275 9.07731 94.1641 8.65931 95.508 8.65931C96.6297 8.65931 97.4499 8.96091 97.9684 9.5641C98.4869 10.1567 98.7462 11.1038 98.7462 12.4054V17.0563H96.6509V12.4054C96.6509 11.7811 96.5186 11.326 96.2541 11.0403C95.9895 10.7546 95.5768 10.6117 95.0159 10.6117C94.3704 10.6117 93.9048 10.7969 93.6191 11.1673C93.3334 11.5271 93.1905 12.1144 93.1905 12.9293V17.0563H91.0952V12.4054C91.0952 11.7811 90.9629 11.326 90.6984 11.0403C90.4338 10.7546 90.0211 10.6117 89.4602 10.6117C88.8147 10.6117 88.3491 10.7969 88.0634 11.1673C87.7777 11.5271 87.6348 12.1144 87.6348 12.9293V17.0563Z" fill="var(--fill-0, #4D58FF)"/>
<path d="M99.5913 13.7388H101.687C101.687 14.2573 101.872 14.6383 102.242 14.8817C102.613 15.1251 103.205 15.2468 104.02 15.2468C104.824 15.2468 105.412 15.1304 105.782 14.8976C106.163 14.6542 106.353 14.2732 106.353 13.7547C106.353 13.2361 106.152 12.8658 105.75 12.6435C105.348 12.4107 104.687 12.2943 103.766 12.2943H103.242V10.4689H103.845C104.692 10.4689 105.3 10.3631 105.671 10.1514C106.041 9.92919 106.226 9.57468 106.226 9.0879C106.226 8.61169 106.057 8.27306 105.718 8.072C105.38 7.86035 104.835 7.75453 104.083 7.75453C103.332 7.75453 102.782 7.86565 102.433 8.08787C102.094 8.29952 101.925 8.64344 101.925 9.11964H99.8294C99.8294 7.95559 100.163 7.1143 100.829 6.59577C101.507 6.06666 102.591 5.8021 104.083 5.8021C105.565 5.8021 106.639 6.0455 107.306 6.53228C107.983 7.00848 108.322 7.78099 108.322 8.8498C108.322 10.0456 107.861 10.8869 106.941 11.3737C107.946 11.8499 108.449 12.7282 108.449 14.0086C108.449 15.1304 108.094 15.9452 107.385 16.4532C106.687 16.9505 105.565 17.1992 104.02 17.1992C102.475 17.1992 101.348 16.9294 100.639 16.3897C99.9405 15.8394 99.5913 14.9558 99.5913 13.7388Z" fill="var(--fill-0, #4D58FF)"/>
<path d="M113.412 17.0563V5.94496H115.65V14.9611H122.238V17.0563H113.412Z" fill="var(--fill-0, #4D58FF)"/>
<path d="M125.771 17.1992C124.702 17.1992 123.914 16.9981 123.406 16.596C122.908 16.1833 122.66 15.5272 122.66 14.6277C122.66 13.7071 122.935 13.051 123.485 12.6594C124.035 12.2573 124.924 12.0562 126.152 12.0562H128.628C128.586 11.4954 128.411 11.0932 128.104 10.8498C127.808 10.5959 127.342 10.4689 126.707 10.4689C125.681 10.4689 125.078 10.834 124.898 11.5641H122.834C122.961 10.5482 123.337 9.81278 123.961 9.35774C124.586 8.89212 125.528 8.65931 126.787 8.65931C128.162 8.65931 129.163 8.94504 129.787 9.51648C130.411 10.0773 130.723 10.9874 130.723 12.2467V17.0563H128.628V16.2785C128.025 16.8923 127.073 17.1992 125.771 17.1992ZM124.755 14.5325C124.755 15.1039 125.268 15.3896 126.295 15.3896C127.014 15.3896 127.554 15.2626 127.914 15.0087C128.284 14.7441 128.522 14.3367 128.628 13.7864V13.5959H126.707C125.406 13.5959 124.755 13.9081 124.755 14.5325Z" fill="var(--fill-0, #4D58FF)"/>
<path d="M132.065 17.0563V5.15129H134.161V9.67521C134.732 8.99795 135.658 8.65931 136.938 8.65931C138.219 8.65931 139.145 8.99795 139.716 9.67521C140.298 10.3525 140.589 11.4372 140.589 12.9293C140.589 14.4319 140.298 15.5219 139.716 16.1992C139.145 16.8659 138.219 17.1992 136.938 17.1992C135.658 17.1992 134.732 16.8606 134.161 16.1833V17.0563H132.065ZM136.351 15.2468C137.092 15.2468 137.632 15.0616 137.97 14.6912C138.319 14.3208 138.494 13.7335 138.494 12.9293C138.494 12.1144 138.325 11.5271 137.986 11.1673C137.647 10.7969 137.102 10.6117 136.351 10.6117C135.6 10.6117 135.05 10.7969 134.7 11.1673C134.362 11.5271 134.192 12.1144 134.192 12.9293C134.192 13.7335 134.362 14.3208 134.7 14.6912C135.05 15.0616 135.6 15.2468 136.351 15.2468Z" fill="var(--fill-0, #4D58FF)"/>
<path d="M141.254 14.4214H143.317C143.518 15.0669 144.19 15.3896 145.333 15.3896C146.434 15.3896 146.984 15.1674 146.984 14.723C146.984 14.3208 146.291 14.0245 144.905 13.834C143.614 13.6859 142.698 13.4108 142.159 13.0086C141.619 12.5959 141.349 11.9821 141.349 11.1673C141.349 10.3101 141.635 9.6805 142.206 9.27838C142.778 8.86567 143.682 8.65931 144.921 8.65931C146.201 8.65931 147.153 8.88154 147.778 9.326C148.413 9.75987 148.788 10.4636 148.905 11.4372H146.841C146.725 11.0985 146.513 10.8551 146.206 10.707C145.91 10.5482 145.471 10.4689 144.889 10.4689C143.883 10.4689 143.381 10.6752 143.381 11.0879C143.381 11.4689 144.016 11.744 145.286 11.9134C146.682 12.1144 147.651 12.4054 148.19 12.7864C148.73 13.1568 149 13.7441 149 14.5483C149 15.4373 148.698 16.1039 148.095 16.5484C147.503 16.9823 146.561 17.1992 145.27 17.1992C144 17.1992 143.042 16.977 142.397 16.5325C141.751 16.0881 141.37 15.3843 141.254 14.4214Z" fill="var(--fill-0, #4D58FF)"/>
</g>
</g>
<defs>
<linearGradient gradientUnits="userSpaceOnUse" id="paint0_linear_0_987" x1="9.53257" x2="8.72701" y1="2.06762e-08" y2="16.5142">
<stop stop-color="#ADCFFF"/>
<stop offset="1" stop-color="#375ADE"/>
</linearGradient>
<clipPath id="clip0_0_987">
<rect fill="white" height="25.4617" width="149"/>
</clipPath>
</defs>
</svg>